<?xml version="1.0" encoding="UTF-8"?>
<svg width="339px" height="100px" viewBox="0 0 339 100" version="1.1" xmlns="http://www.w3.org/2000/svg" xmlns:xlink="http://www.w3.org/1999/xlink">
    <!-- Generator: Sketch 60 (88103) - https://sketch.com -->
    <title>Logo-light</title>
    <desc>Created with Sketch.</desc>
    <g id="Page-1" stroke="none" stroke-width="1" fill="none" fill-rule="evenodd">
        <g id="Logo-light" fill="#FCFCFC" fill-rule="nonzero">
            <path d="M111.328294,99.2764579 L112.410464,99.2513099 L113.079154,99.2329698 C114.392679,99.1925698 114.559799,99.1519957 114.50324,99.0388769 C114.463434,98.9493143 114.405288,80.0424629 114.371053,55.855794 L114.345812,37.4725437 C114.311045,16.1366678 114.259019,0.193564795 114.222462,0.129589633 C114.149136,0.0353131749 103.284927,0.00200215983 61.070051,0 L0,0 L0,99.2116631 L4.0712743,99.2764579 C9.37365011,99.3736501 107.073434,99.3736501 111.328294,99.2764579 Z M56.9006479,95.6803456 L3.67170626,95.6803456 L3.67170626,3.5637149 L110.799136,3.5637149 L110.799136,95.5399568 L110.464363,95.6155508 C110.280778,95.6479482 86.1771058,95.6803456 56.9006479,95.6803456 Z M85.0431965,88.1641469 C91.2311015,86.8142549 96.9978402,82.4730022 100.820734,76.2958963 C104.190065,70.8423326 105.647948,63.9524838 105.075594,56.2634989 C104.427646,47.6457883 100.345572,39.9352052 93.8336933,35 C91.2526998,33.0561555 88.4017279,31.7170626 85.2051836,30.9395248 C80.8639309,29.9028078 75.5939525,30.0539957 71.7062635,31.3282937 C68.8552916,32.2786177 65.8855292,34.1360691 64.049676,36.1339093 L63.3909287,36.8574514 L63.3909287,9.64362851 L45.0323974,9.64362851 L45.0317672,40.9648779 L45.0295919,45.4795898 C45.0194043,59.5912167 44.9790797,62.8134897 44.8704104,63.6285097 C44.4276458,66.9546436 42.8077754,69.3520518 40.2159827,70.5291577 C38.9856526,71.0912913 37.8594914,71.3096673 36.2134154,71.3070563 L36.1231102,71.3066955 C32.4946004,71.2958963 30.0971922,70.0323974 28.7473002,67.4082073 L28.6252187,67.1699771 L28.5607537,67.0419492 C27.8854249,65.6891997 27.8325432,65.1744384 27.7429806,61.7710583 L27.7352145,61.3844019 C27.6947559,59.0579568 27.6565875,52.0209503 27.6565875,45.1079914 L27.6457883,31.74946 L9.27645788,31.74946 L9.31965443,50.2915767 L9.35205184,68.8444924 L9.58963283,70.3563715 L9.63464448,70.631811 C10.1280307,73.5930691 10.8107411,75.8252474 11.8898488,78.0777538 C15.8099352,86.2419006 24.4816415,90.2159827 34.3844492,88.3909287 C37.9766739,87.7280778 40.7644968,86.3137462 43.1880104,83.9278879 L43.3653645,83.7525289 C43.989129,83.1337239 44.5975901,82.4838013 44.7408207,82.2894168 L45.0323974,81.9114471 L45.0323974,87.2570194 L63.4989201,87.2570194 L63.4994402,84.5950815 L63.5031108,84.0777305 C63.5128856,83.163317 63.5383002,82.5053996 63.5637149,82.5053996 C63.6069114,82.5053996 64.1576674,83.0021598 64.7840173,83.6069114 C69.5572354,88.2073434 77.0950324,89.9028078 85.0431965,88.1641469 Z M332.667387,30.6263499 C333.87689,30.3023758 335.215983,29.5572354 336.166307,28.6609071 C338.122786,26.8220302 338.957337,24.7926371 338.848092,22.122157 L338.844492,22.0410367 C338.748368,19.7874587 338.050148,18.1887928 336.446867,16.5659826 L336.298193,16.4161973 L336.202022,16.320155 C335.498192,15.6212673 335.175424,15.3953958 334.436148,15.0255541 L334.341253,14.9784017 C333.779698,14.6976242 333.023758,14.3952484 332.667387,14.2980562 C331.797958,14.0753976 329.897938,14.0088892 328.93993,14.1802969 L328.887689,14.1900648 C327.235421,14.5032397 325.917927,15.2267819 324.62203,16.5226782 C322.796976,18.3477322 322.041037,20.3347732 322.170626,22.9481641 C322.278618,25.161987 323.012959,26.8034557 324.568035,28.3477322 C325.962796,29.7318468 327.210598,30.4126572 328.973793,30.7316881 L329.049676,30.7451404 C330.11879,30.9395248 331.673866,30.8855292 332.667387,30.6263499 Z M330.745157,29.7403312 L330.386542,29.7407446 L330.106915,29.7395861 C329.220751,29.7326135 328.959833,29.6897249 328.303665,29.4587971 L328.185745,29.4168467 C326.069114,28.6717063 324.362851,26.9546436 323.639309,24.838013 C323.304536,23.8768898 323.228942,21.7602592 323.477322,20.6803456 C323.974082,18.5637149 325.788337,16.4362851 327.764579,15.6479482 C329.319654,15.0323974 331.231102,14.9676026 332.75378,15.4859611 C335.073758,16.2664147 336.959783,18.3381447 337.521191,20.7266608 L337.537797,20.7991361 C337.678186,21.425486 337.699784,21.9330454 337.667387,22.8833693 C337.570194,24.9568035 336.922246,26.3714903 335.388769,27.8293737 L335.29,27.9227276 L335.19196,28.013731 C334.385232,28.7551432 333.825235,29.0790149 332.764579,29.4492441 L332.654806,29.4864444 L332.545496,29.5223251 C332.003104,29.6966619 331.693075,29.7344487 330.803971,29.7400129 L330.745157,29.7403312 Z M142.786177,83.4665227 C146.598272,82.8941685 149.902808,81.0691145 152.24622,78.2397408 L152.688985,77.699784 L152.699784,79.9892009 L152.699784,82.2894168 L168.466523,82.2894168 L168.488121,80.2915767 L168.520518,78.2937365 L169.600432,79.2764579 C172.224622,81.6522678 174.794816,82.8725702 178.401728,83.4341253 C179.946004,83.6717063 183.412527,83.6825054 185.161987,83.4449244 C191.523218,82.5789417 196.931868,78.7917106 200.706842,72.5861938 L200.820734,72.3974082 C200.950324,72.1706263 200.788337,71.9762419 202.526998,74.4492441 C205.313175,78.412527 209.038877,81.2311015 213.412527,82.6565875 C215.647948,83.4017279 217.170626,83.6177106 220.086393,83.6285097 L220.341639,83.6282044 L220.684119,83.6266397 C222.78622,83.6121961 223.650364,83.5079437 225.208123,83.104629 L225.269978,83.0885529 C228.088553,82.3542117 230.62635,80.9719222 232.62419,79.0820734 L233.585313,78.1641469 L233.585313,82.2894168 L249.352052,82.2894168 L249.37365,77.9049676 L249.406048,73.5205184 L250.313175,74.6112311 C253.833693,78.8768898 258.952484,81.9006479 264.568035,83.0453564 C267.36824,83.61181 272.67534,83.808047 275.694731,83.4456328 L275.788337,83.4341253 C281.382289,82.7537797 285.658747,80.9179266 289.449244,77.5917927 L290.388769,76.7602592 L290.388769,82.2894168 L306.155508,82.2894168 L306.155823,67.9172187 L306.158179,65.6548762 C306.168664,59.1963343 306.209624,55.6964156 306.274298,55.2159827 C306.414687,54.1792657 306.911447,52.6349892 307.365011,51.8466523 C307.553678,51.5322068 308.017023,50.9329108 308.429202,50.5029692 L308.466523,50.4643629 C309.406048,49.4708423 310.485961,48.9092873 312.062635,48.574514 C313.272138,48.3261339 315.043197,48.3585313 316.090713,48.6393089 C317.084233,48.9200864 318.218143,49.5464363 318.930886,50.2159827 C320.091413,51.3019803 320.716589,52.6294108 320.930604,54.4984016 L320.939525,54.5788337 C321.012095,55.2215983 321.054808,59.8254514 321.058109,67.9222283 L321.058315,82.2894168 L328.370276,82.2888058 L329.819654,82.2850216 C332.507018,82.2747784 334.830994,82.2476026 335.464363,82.2138229 L336.943844,82.1490281 L336.886292,61.3981989 C336.851335,50.0866523 336.796976,50.1455724 336.274298,47.5701944 C335.993521,46.2095032 335.237581,43.8984881 334.665227,42.6781857 C333.585313,40.3779698 331.565875,37.9481641 329.50324,36.4686825 C327.693994,35.1702821 325.244955,34.1550679 322.786645,33.6917862 L322.678186,33.6717063 C321.673866,33.488121 321.015119,33.4449244 319.222462,33.4449244 L319.009113,33.4455289 C315.799085,33.4639154 313.750368,33.9039313 311.363896,35.0693092 L311.285097,35.1079914 C309.716982,35.8708586 308.491916,36.7792624 307.222326,38.0983852 L306.155508,39.2116631 L306.155508,34.9136069 L302.807775,34.8272138 L302.378292,34.8184255 L301.897525,34.8109893 C299.952078,34.7849473 297.052977,34.7903554 294.924406,34.8272138 L290.388769,34.9136069 L290.388769,43.5529158 L289.719222,42.699784 C288.844492,41.587473 286.771058,39.4600432 285.74514,38.6285097 C280.291577,34.2224622 273.142549,32.537797 265.302376,33.812095 C260.939525,34.5140389 257.429806,36.0799136 254.049676,38.8228942 L253.970465,38.8878343 C252.88717,39.785984 250.73807,41.9549359 249.94863,42.9412418 L249.406048,43.6285097 L249.37365,29.6976242 L249.352052,15.7667387 L233.585313,15.7667387 L233.585313,38.8984881 L232.613391,37.9805616 C228.196544,33.7688985 221.144708,32.3218143 214.146868,34.1900648 C209.265659,35.4859611 204.460043,39.2764579 201.447084,44.2116631 L201.015119,44.9352052 L200.194384,43.7149028 C197.948164,40.3239741 195.421166,37.8617711 192.483801,36.1555076 C188.704104,33.9740821 184.24406,33.0453564 179.654428,33.4773218 C175.507559,33.8768898 171.933045,35.475162 169.049676,38.25054 L168.49892,38.7796976 L168.434125,34.8056156 C168.392225,32.6896328 168.360485,27.7489179 168.358618,23.6696447 L168.358531,15.7667387 L152.699784,15.7667387 L152.699471,39.8382622 L152.69679,43.9259206 C152.685971,54.3920694 152.646611,60.3124362 152.591793,60.9611231 C152.289417,64.1792657 151.263499,66.1987041 149.287257,67.4946004 C148.110151,68.2613391 146.987041,68.5961123 145.388769,68.6609071 C143.855292,68.7149028 142.937365,68.5853132 141.792657,68.1317495 C139.75162,67.3218143 138.336933,65.5399568 137.915767,63.2397408 L137.910648,63.2082819 L137.905904,63.1693044 C137.829363,62.4601124 137.798892,58.1903392 137.797065,49.601831 L137.796976,34.9136069 L134.398395,34.832386 L134.103813,34.8266375 C132.239515,34.7931604 129.094138,34.7870807 126.727862,34.8164147 L121.976242,34.8812095 L121.976242,55.314616 L121.979148,58.5392 C121.989413,65.5757436 122.026062,66.6716593 122.159817,67.5844942 L122.170626,67.6565875 C122.591793,70.4643629 123.261339,72.6781857 124.308855,74.7516199 C125.161987,76.425486 126.069114,77.6889849 127.321814,78.9416847 C130.021598,81.6414687 133.390929,83.1857451 137.473002,83.5961123 C138.822894,83.7257019 141.490281,83.6609071 142.786177,83.4665227 Z M332.12743,26.7818575 L333.164147,26.7818575 L333.332387,26.7813565 L333.485815,26.7797216 C334.064436,26.7707245 334.230113,26.7310972 334.276458,26.6198704 C334.308855,26.5226782 334.006479,25.8423326 333.542117,25 L332.75378,23.5421166 L333.25054,23.0345572 C333.542117,22.7321814 333.812095,22.3326134 333.887689,22.0734341 C334.049676,21.511879 334.049676,20.6155508 333.887689,20.0647948 C333.707382,19.4708423 332.974979,18.6789688 332.304335,18.3644124 L332.202403,18.3182571 L332.127108,18.2859769 C331.74413,18.1273481 331.434404,18.0926053 330.248617,18.0665136 L329.278815,18.0480282 L328.946798,18.0438365 C328.038375,18.0357122 327.751648,18.0660329 327.703524,18.1557898 L327.699784,18.1641469 L327.697866,18.170938 C327.666963,18.3184968 327.656803,20.2514039 327.667387,22.5161987 L327.699784,26.7278618 L328.596112,26.7602592 C329.15379,26.7813037 329.537178,26.751086 329.646378,26.669606 L329.654428,26.663067 C329.773218,26.5658747 329.805616,26.2311015 329.805616,25.3131749 L329.805616,24.0820734 L330.723542,24.0820734 L332.12743,26.7818575 Z M329.805616,22.0518359 L329.805616,20.0863931 L330.453564,20.0863931 C330.808073,20.0863931 331.222986,20.1568635 331.396981,20.2394841 L331.414687,20.2483801 C331.760259,20.4211663 331.857451,20.6047516 331.857451,21.1015119 C331.857451,21.6846652 331.457883,21.9654428 330.561555,22.0086393 L329.805616,22.0518359 Z M279.113406,52.690897 L279.37365,53.3477322 L268.884762,53.3471046 L267.040932,53.3437742 C263.1917,53.3330782 261.12311,53.3002462 261.12311,53.2397408 C261.12311,53.012959 261.987041,51.2742981 262.473002,50.5183585 C263.693305,48.6393089 265.583153,47.4298056 268.142549,46.9222462 C269.103672,46.7278618 271.393089,46.7278618 272.37581,46.9114471 L272.483763,46.9332548 C273.449836,47.1343339 274.732891,47.5549205 275.242454,47.8559598 L275.269978,47.8725702 C276.900924,48.851138 278.214045,50.4858618 279.079477,52.6069188 L279.113406,52.690897 Z M69.4492441,70.3131749 C66.4146868,68.7796976 64.4060475,66.0367171 63.6933045,62.4190065 C63.4773218,61.3066955 63.5205184,57.4082073 63.7580994,56.2634989 C64.6652268,51.9438445 68.0345572,48.574514 72.300216,47.7213823 C74.0712743,47.3758099 75.9719222,47.3758099 77.7969762,47.7429806 C82.300216,48.650108 85.4967603,52.0194384 86.4686825,56.8790497 C86.7278618,58.174946 86.7278618,60.8315335 86.4686825,62.0950324 C85.8423326,65.1295896 84.4924406,67.5485961 82.537797,69.0928726 C79.0064795,71.9114471 73.6393089,72.4082073 69.4492441,70.3131749 Z M177.786177,68.7580994 L177.638898,68.7542153 C175.586313,68.6968387 174.955687,68.5357861 173.531317,67.8077754 C171.360691,66.6846652 169.535637,64.3520518 168.779698,61.7710583 C168.444924,60.6155508 168.358531,57.3542117 168.62851,56.0367171 C169.038877,54.0064795 170.043197,52.2030238 171.576674,50.7343413 L171.683364,50.6337678 C173.264409,49.1603525 174.78461,48.5035483 177.213823,48.2289417 C177.894168,48.1533477 180,48.2721382 180.74514,48.4341253 C183.596112,49.0388769 185.777538,50.6911447 187.084233,53.2289417 C188.031222,55.0803583 188.391116,56.7745172 188.308529,59.0138362 L188.304536,59.1144708 C188.185745,62.0194384 187.257019,64.2440605 185.367171,66.1555076 C183.304536,68.2397408 181.479482,68.8768898 177.786177,68.7580994 Z M223.752952,68.7363933 L223.106051,68.7359924 L222.708317,68.7342646 C221.315031,68.7248884 221.040097,68.679778 220.410367,68.488121 C217.149028,67.462203 214.686825,64.762419 213.99568,61.4794816 C213.531317,59.287257 213.563715,57.3218143 214.092873,55.237581 C214.956803,51.8142549 217.850972,49.049676 221.209503,48.4341253 L221.553849,48.3738262 L221.763481,48.3384819 C222.560838,48.207134 222.893126,48.193956 223.802409,48.2203015 L224.082073,48.2289417 C224.935205,48.25054 225.669546,48.3477322 226.382289,48.5313175 C230.367171,49.5464363 233.012959,52.775378 233.466523,57.1922246 C233.583486,58.3405881 233.459652,60.6091786 233.218722,61.5549188 L233.207343,61.5982721 C232.448272,64.4528078 230.726036,66.6299525 228.187332,67.9306168 L228.031726,68.0090861 C226.804648,68.6209929 226.256852,68.7267076 223.974446,68.7358075 L223.752952,68.7363933 Z M290.388769,64.2548596 L290.388769,73.6717063 L289.804648,73.2462717 L289.326138,72.9078566 L289.326138,72.9078566 L284.954334,69.8401901 C283.514742,68.8266973 282.171191,67.8713883 281.706263,67.5269978 L280.637149,66.74946 L280.237581,67.1058315 C279.25486,67.9913607 277.4946,68.9740821 275.971922,69.4816415 C274.700024,69.9056076 273.521752,70.0799048 271.814281,70.0862148 L271.717063,70.0863931 C268.606911,70.0863931 266.349892,69.4816415 264.362851,68.1425486 C263.174946,67.3434125 261.933045,65.7991361 261.457883,64.5464363 L261.339093,64.2548596 L290.388769,64.2548596 Z M308.077754,99.4924406 L308.091987,99.4597411 L308.105145,99.4265553 C308.243608,99.0596599 308.274691,98.3715572 308.315335,95.1403888 L308.36933,91.1987041 L309.625505,92.9932974 L309.892091,93.3773798 C310.35442,94.0454826 310.893049,94.8331157 311.300827,95.4358342 L311.516077,95.754034 L311.767798,96.1231165 C312.303861,96.905673 312.936491,97.8087514 313.326134,98.336933 L313.522982,98.6094068 L313.608788,98.7266994 C314.14089,99.449964 314.279749,99.5529046 314.618633,99.6351677 L315.11879,99.7516199 L315.11879,89.2008639 L314.146868,89.2008639 L314.12527,93.488121 L314.092873,97.7645788 L312.095032,94.8596112 L310.559967,92.6217482 C308.133909,89.0917927 308.207343,89.275378 307.656587,89.1468683 L307.365011,89.0712743 L307.281506,92.6322695 L307.272162,93.083647 C307.222472,95.7228789 307.272293,97.8019838 307.429806,99.1900648 L307.437704,99.2525964 C307.540484,100.01646 307.793751,100.11304 308.077754,99.4924406 Z M221.112311,99.6220302 C223.38013,99.0280778 225.086393,96.8034557 225.086393,94.4384449 C225.086393,92.4946004 223.99568,90.6695464 222.289417,89.7732181 C220.907127,89.0388769 219.071274,88.8768898 217.688985,89.3412527 C215.971922,89.9352052 214.643629,91.3390929 214.200864,93.0345572 C213.984881,93.8660907 213.99568,95.161987 214.211663,95.9071274 C214.730022,97.6889849 216.37149,99.2548596 218.142549,99.6652268 C218.866091,99.8272138 220.37797,99.8056156 221.112311,99.6220302 Z M195.356371,99.8920086 L195.356371,91.1015119 L195.886531,91.8240763 L196.024524,92.0189414 C196.417016,92.5775707 197.223977,93.7516948 197.991361,94.8704104 L198.477946,95.5829562 L198.888919,96.1829609 C200.922902,99.1464334 201.2387,99.4992397 201.706263,99.6328294 L202.159827,99.7732181 L202.206724,90.2334691 C202.20909,89.9897681 202.211457,89.8263123 202.213823,89.762419 L202.213823,89.2548596 L201.328294,89.1900648 L201.2527,89.6976242 L201.247844,89.751867 C201.218113,90.1577946 201.189753,91.8904497 201.187991,93.7977775 L201.187905,97.7645788 L200.885529,97.3434125 L200.823213,97.2580188 L200.67272,97.0443919 C200.219071,96.3948247 199.160346,94.8469114 198.023758,93.1857451 L197.269765,92.0817348 L196.863424,91.4908245 C195.612704,89.6796967 195.364037,89.4076407 195.05468,89.2749465 L194.977468,89.2436378 L194.922686,89.222531 C194.722737,89.146996 194.536468,89.0928726 194.481641,89.0928726 C194.406048,89.0928726 194.384449,90.7991361 194.406048,94.2980562 L194.416935,95.4733153 C194.442464,97.7781371 194.488124,99.5719033 194.534017,99.6940106 L194.535637,99.6976242 C194.589633,99.8272138 194.75162,99.8920086 194.989201,99.8920086 L195.356371,99.8920086 Z M127.201725,99.4541609 L127.230357,99.3910672 L127.245578,99.3556268 C127.402066,98.9800812 127.427427,98.532536 127.429634,95.545019 L127.429806,91.1015119 L127.934567,91.7946908 L128.121522,92.0593841 C128.539309,92.6558421 129.345005,93.8276779 130.12959,94.9784017 L130.752756,95.8945112 C132.972233,99.1492527 133.303672,99.524406 133.790497,99.6436285 L134.233261,99.762419 L134.233261,89.2008639 L133.261339,89.2008639 L133.261339,97.775378 L132.570194,96.7818575 L132.335598,96.450535 C131.937188,95.8823707 131.247199,94.8806164 130.508406,93.7988771 L129.372786,92.1324192 L129.004496,91.5950219 C127.731949,89.7441221 127.464715,89.4312981 127.14953,89.2848598 L127.105832,89.2656587 L127.023874,89.2329609 C126.815868,89.1520282 126.62444,89.0928726 126.576674,89.0928726 C126.536501,89.0928726 126.468308,90.4285173 126.432898,92.1269343 L126.418545,92.8858867 L126.413238,93.2443294 C126.376316,96.1088363 126.471364,98.8735979 126.63067,99.600432 L126.640043,99.6426131 C126.731292,100.013273 126.966964,99.9444522 127.189595,99.4798928 L127.201725,99.4541609 Z M150.323974,99.7840173 C151.933045,99.7840173 153.110151,99.2980562 154.211663,98.174946 C155.593952,96.7710583 156.101512,95.0431965 155.669546,93.2181425 C155.086393,90.7343413 152.87257,89.0712743 150.183585,89.1036717 L150.091173,89.1057678 C149.564435,89.1193038 148.993281,89.1606672 148.768898,89.2116631 C147.969762,89.3952484 146.889849,90.0647948 146.231102,90.7775378 C144.222462,92.9157667 144.222462,96.0151188 146.220302,98.0993521 C147.332613,99.2548596 148.617711,99.7840173 150.323974,99.7840173 Z M187.580994,99.7840173 C189.265659,99.7840173 190.464363,99.3088553 191.544276,98.2073434 C192.678186,97.0518359 193.304536,95.3563715 193.142549,93.9092873 C192.894168,91.6414687 191.306695,89.8488121 189.028078,89.2548596 C188.25054,89.049676 186.738661,89.0604752 185.971922,89.2656587 C183.7473,89.8596112 182.062635,92.0950324 182.073231,94.4276458 C182.084233,95.9071274 182.570194,97.1166307 183.585313,98.1425486 C184.676026,99.2440605 185.993521,99.7840173 187.580994,99.7840173 Z M334.88121,99.7192225 L335.192977,99.7184855 L335.34162,99.7172901 C336.132999,99.7087271 336.365484,99.6659933 336.771058,99.4816415 L336.842137,99.4465797 L336.91179,99.4107154 C337.168997,99.2756986 337.441001,99.1049676 337.559395,98.9956803 C338.36933,98.2397408 338.671706,96.8682505 338.239741,95.9719222 L338.213359,95.9191868 C337.828488,95.1711516 337.148527,94.7561279 335.362549,94.1460714 L335.114866,94.0624443 L334.99786,94.0224908 C333.112871,93.3733954 332.501978,92.8910713 332.419006,92.0302376 C332.332613,91.112311 332.980562,90.3239741 334.082073,90 C335.158435,89.6909458 336.203245,90.0444511 336.687205,90.8840825 L336.706263,90.9179266 C336.965443,91.3930886 337.537797,91.7710583 337.840173,91.6522678 C337.926566,91.6198704 338.034557,91.4686825 338.077754,91.3174946 C338.228942,90.712743 337.062635,89.5896328 335.917927,89.2548596 C335.269978,89.0604752 334.017279,89.0604752 333.423326,89.2440605 C332.041037,89.6868251 331.382289,90.5183585 331.37149,91.8466523 C331.37149,93.2647948 331.921179,93.8324752 334.07762,94.5457713 L334.3483,94.6342181 L334.549243,94.7011597 C335.837887,95.1361136 336.567027,95.496235 336.965443,95.87473 C337.796976,96.6738661 337.397408,98.1317495 336.187905,98.6825054 C334.697624,99.3736501 332.796976,98.7796976 331.889849,97.3542117 L331.858402,97.3026755 C331.706151,97.0572635 331.552986,96.8682505 331.522678,96.8682505 C331.393089,96.8682505 330.993521,97.3218143 330.993521,97.4730022 C330.993521,97.7861771 331.425486,98.4773218 331.868251,98.8552916 C332.667387,99.5356371 333.326134,99.7192225 334.88121,99.7192225 Z M251.965443,99.6652268 C253.822894,99.2764579 255.475162,97.6241901 255.993521,95.6047516 C256.706263,92.8833693 254.924406,90.0215983 252.051836,89.2548596 C251.342481,89.0642866 249.761224,89.0605499 249.058381,89.2436495 L249.017279,89.2548596 C248.12095,89.4924406 247.473002,89.8920086 246.695464,90.6587473 C244.190065,93.1425486 244.589633,97.0086393 247.559395,98.9416847 C248.758099,99.7192225 250.410367,99.9892009 251.965443,99.6652268 Z M304.103672,99.6868251 L304.62203,99.6544276 L305.12959,99.6220302 L305.161987,95.075594 L305.16458,94.1128057 L305.164045,93.2011482 C305.160247,91.5543755 305.141001,90.25552 305.110379,89.9763295 L305.098925,89.8943468 L305.085516,89.8073394 C305.022122,89.4157902 304.962045,89.3613705 304.632829,89.2548596 L304.24406,89.1144708 L304.168467,90 L304.162641,90.105767 C304.133267,90.7407386 304.105501,92.8652171 304.103758,95.0632052 L304.103672,99.6868251 Z M328.898488,99.5896328 C330.74514,99.049676 331.436285,96.2958963 330,95.2159827 L329.953498,95.181532 L329.906738,95.1477663 C329.413897,94.7965942 328.854647,94.5478869 327.483801,94.0604752 L327.291789,93.9923227 L327.113681,93.9277689 C325.236722,93.2398552 324.730022,92.7986371 324.730022,91.9654428 C324.730022,91.4470842 324.902808,91.0475162 325.302376,90.6263499 C325.669546,90.2483801 326.598272,89.8488121 327.116631,89.8488121 C327.838933,89.8488121 328.864228,90.4756902 329.3601,91.2156119 L329.439625,91.3369475 C329.712026,91.7503283 329.748164,91.7537797 330.032397,91.6522678 C330.410367,91.5010799 330.442765,91.2095032 330.12959,90.6047516 C329.892009,90.1511879 329.481641,89.7948164 328.725702,89.4060475 L328.678485,89.3828871 L328.631862,89.3609868 C328.291487,89.2049192 327.977414,89.1476569 327.212673,89.126647 L327.041435,89.122172 L326.924044,89.1200379 C326.329543,89.1118045 325.92109,89.1470319 325.691145,89.2332613 C324.730022,89.5896328 324.114471,90.1943844 323.812095,91.0475162 C323.471839,92.0151188 323.686462,92.919905 324.435347,93.5866327 L324.507228,93.6496712 L324.543565,93.6807924 C324.985847,94.054538 325.442965,94.2533898 326.842105,94.6958116 L327.136476,94.7883266 C328.986334,95.3765517 329.746269,96.0105235 329.741227,96.9364134 L329.740821,96.9654428 C329.730022,97.9481641 329.114471,98.5853132 327.926566,98.887689 C327.362224,99.0235491 327.121519,99.0380454 326.646569,98.9409651 L326.598272,98.9308855 C325.539957,98.7257019 324.632829,98.0453564 324.017279,97.0194384 L323.998816,96.9880071 C323.911006,96.8457532 323.839963,96.8428203 323.617711,96.9438445 C322.732181,97.3542117 323.87689,98.9956803 325.410367,99.5356371 C326.069114,99.762419 328.185745,99.8056156 328.898488,99.5896328 Z M136.450825,99.8918048 L136.792657,99.8920086 L136.868251,97.8401728 C136.910508,96.7309137 136.911427,94.8258817 136.871006,93.5505933 L136.851072,92.9111663 L136.840005,92.4649699 C136.823246,91.6865811 136.826383,91.1447084 136.857451,91.1447084 C136.922246,91.1447084 138.023758,92.6889849 139.470842,94.8164147 L139.874337,95.409945 C141.906877,98.3921123 142.782721,99.5509719 143.066955,99.6220302 L143.155212,99.6405987 C143.277126,99.6673523 143.4115,99.7008892 143.504343,99.7268122 L143.5624,99.7434383 C143.714591,99.7792246 143.734281,99.4512321 143.736297,95.470485 L143.736501,89.2008639 L143.252339,89.2010373 L143.152726,89.2023452 C142.985361,89.2056635 142.859371,89.2140629 142.850972,89.2224622 L142.850298,89.2260398 C142.844471,89.2747677 142.833352,89.7938519 142.819641,90.5956576 L142.710583,97.7861771 L140.917927,95.1943844 L139.185407,92.6760032 C138.872036,92.2193726 138.579758,91.7926719 138.336823,91.4367695 L137.859024,90.7351915 L137.706816,90.5142758 C137.084847,89.6176994 136.807523,89.3017728 136.61987,89.2548596 L136.552211,89.2397786 L136.473305,89.2210367 C136.366461,89.1949707 136.256204,89.1654913 136.180081,89.1433262 L136.155508,89.1360691 C136.009919,89.0944725 135.974485,89.203086 135.914201,89.7994191 L135.904575,89.8985558 L135.900963,89.9478891 C135.862943,90.5298216 135.854199,92.7199568 135.87473,94.9784017 L135.887581,96.265378 L135.895122,96.8561362 C135.935984,99.6988163 136.019046,99.885162 136.450825,99.8918048 L136.450825,99.8918048 Z M302.285033,99.1356811 L302.311015,99.1144708 C303.509719,98.1317495 303.693305,96.1555076 302.678186,95.3023758 L302.623717,95.2574374 L302.567605,95.2129824 C302.114082,94.8612825 301.538393,94.5990431 300.032397,94.0604752 L299.829469,93.9860039 L299.703564,93.9392154 C297.680799,93.183433 297.300216,92.8337559 297.300216,91.8790497 C297.300216,91.3606911 297.613391,90.7451404 298.056156,90.4103672 C298.401728,90.1511879 299.298056,89.8488121 299.719222,89.8488121 C300.453564,89.8596112 301.706263,90.7235421 302.116631,91.4902808 C302.29631,91.8390699 302.465645,91.8671799 302.786625,91.6151084 L302.807775,91.5982721 C303.021958,91.424886 303.04349,91.3670906 302.94515,91.079184 L302.926566,91.0259179 C302.775378,90.5615551 301.943844,89.7408207 301.295896,89.4060475 C300.935506,89.2207042 300.624206,89.162994 299.940739,89.139304 L299.749005,89.1329638 C299.240495,89.1181373 298.669906,89.149868 298.455724,89.2008639 C297.149028,89.5356371 296.360691,90.4211663 296.2527,91.6954644 C296.198704,92.2030238 296.241901,92.4082073 296.468683,92.9049676 L296.493838,92.9585213 C296.837555,93.6722436 297.354602,94.0154679 298.857043,94.5025025 L299.028078,94.5572354 L299.168879,94.6028741 C300.538302,95.0512821 301.460893,95.4882625 301.868251,95.87473 C302.710583,96.6846652 302.321814,98.1209503 301.101512,98.6825054 C299.589633,99.3736501 297.634989,98.7688985 296.803456,97.3434125 L296.771121,97.2878813 L296.739449,97.235174 C296.491056,96.8292528 296.358417,96.7991442 296.069114,97.0086393 C295.421166,97.4838013 296.457883,98.9416847 297.829374,99.4816415 L297.883945,99.502623 L297.942259,99.5241315 C298.346752,99.6697449 298.681586,99.7125349 299.4613,99.7184675 L299.805421,99.7197612 C301.120099,99.7204107 301.746704,99.5694546 302.285033,99.1356811 L302.285033,99.1356811 Z M180.485961,99.6544276 L180.993521,99.6868251 L180.992786,94.3370185 L180.989317,93.3949982 C180.979535,91.5193783 180.95413,90.0187936 180.928726,89.7732181 L180.906068,89.611863 L180.894681,89.5388985 C180.841789,89.221236 180.785811,89.2151842 180.453564,89.1792657 L180.043197,89.1468683 L179.967603,91.5226782 L179.959059,91.90365 L179.95162,92.3033592 C179.930927,93.5192205 179.919542,95.143555 179.931166,96.4046218 L179.967603,99.6220302 L180.485961,99.6544276 Z M290.662311,99.7297051 L290.983843,99.7299174 C292.063199,99.7277361 292.242449,99.6893963 292.786177,99.4384449 C293.472862,99.1215137 294.118206,98.5255454 294.408801,97.933621 L294.427646,97.8941685 C294.730022,97.2570194 294.805616,96.2526998 294.816415,92.5593952 L294.816415,89.1684665 L294.362851,89.2440605 L294.307739,89.2543488 C294.078799,89.2999968 293.862891,89.3792497 293.822894,89.4492441 C293.779698,89.524838 293.7473,90.9827214 293.768898,92.7105832 L293.773616,93.3592853 C293.791897,96.5430589 293.710298,97.1461784 293.285127,97.7883025 L293.272138,97.8077754 C292.62419,98.7796976 291.220302,99.1900648 289.88121,98.8228942 C289.233261,98.6393089 288.552916,98.0885529 288.239741,97.462203 L287.958963,96.9330454 L287.915767,93.1209503 L287.883369,89.3088553 L287.645788,89.3088553 C287.526998,89.3088553 287.311015,89.2764579 287.170626,89.2440605 L286.922246,89.1684665 L286.968019,94.7508045 C286.992873,97.2225972 287.025918,97.3396328 287.24622,97.8077754 C287.548596,98.488121 288.153348,99.0604752 288.974082,99.4492441 L289.074771,99.4957936 L289.123216,99.5173976 C289.536,99.6986735 289.77527,99.7266675 290.662311,99.7297051 Z M163.704104,99.8920086 C163.941685,99.8920086 164.589633,98.8012959 164.967603,97.775378 L165.259179,96.9762419 L170.172786,96.9762419 L170.345572,97.4298056 L170.480295,97.8355849 C170.549708,98.0460444 170.624077,98.2744118 170.680346,98.4557235 C170.777538,98.7580994 170.950324,99.1360691 171.069114,99.287257 C171.274298,99.5464363 172.073434,99.8812095 172.203024,99.762419 C172.267819,99.6868251 171.511879,97.6673866 169.568035,92.7645788 L168.185745,89.2548596 L167.192225,89.1900648 L166.750568,90.3502908 C166.427369,91.1906177 165.791793,92.8311015 165.11879,94.5464363 L164.502253,96.1462321 C163.91844,97.6699604 163.488238,98.8197576 163.455724,98.9416847 C163.358531,99.3736501 163.49892,99.8920086 163.704104,99.8920086 Z M175.701944,99.6760259 L175.701944,89.8488121 L177.606346,89.8483898 L177.853367,89.846882 C178.974515,89.8363138 179.057562,89.7734396 178.855874,89.4515842 L178.833693,89.4168467 C178.748164,89.2778618 178.196929,89.2553035 175.199571,89.223431 L171.490281,89.1900648 L171.490281,89.838013 L174.676026,89.9028078 L174.676346,94.6944695 L174.679368,95.5037112 C174.690232,97.3938692 174.726382,98.9326367 174.770152,99.1954119 L174.79238,99.3104214 L174.806333,99.377178 C174.867396,99.6541861 174.92233,99.6746235 175.232332,99.6760259 L175.701944,99.6760259 Z M262.224622,99.5788337 C263.297157,99.2177826 263.920677,98.6687725 264.362157,97.7059046 L264.410643,97.598078 L264.428093,97.55722 C264.610879,97.118279 264.624708,96.6941389 264.663941,93.2764726 L264.708423,89.1900648 L264.190065,89.2224622 L263.660907,89.2548596 L263.647338,93.1518494 L263.644552,93.5906035 C263.618653,96.9441091 263.495697,97.4892577 262.860405,98.1329834 L262.840173,98.1533477 C262.289417,98.7041037 261.663067,98.9416847 260.74514,98.9416847 C259.510863,98.9416847 258.5911,98.427976 258.099481,97.4728664 L258.042729,97.3586941 C257.829295,96.9154704 257.827773,96.6594017 257.796976,93.0561555 L257.75378,89.2008639 L256.792657,89.2008639 L256.838393,94.8285745 C256.86304,97.3215713 256.894708,97.4395248 257.105832,97.8617711 C257.419006,98.4989201 258.056156,99.0820734 258.844492,99.4384449 C259.719222,99.838013 261.2527,99.9028078 262.224622,99.5788337 Z M208.423326,99.6760259 L208.444924,97.2786177 L208.477322,94.8704104 L210.885529,94.838013 L213.282937,94.8164147 L213.282937,94.1684665 L208.423326,94.1684665 L208.444924,92.0302376 L208.477322,89.9028078 L211.212852,89.8403699 L211.461957,89.8336012 C213.392409,89.7776416 213.834239,89.6767419 213.409942,89.42331 L213.367799,89.3990104 L213.354393,89.3922875 C213.143293,89.2927202 212.477465,89.2502958 210.771552,89.2279664 L207.451404,89.1900648 L207.451404,99.6760259 L208.423326,99.6760259 Z M241.036717,99.6760259 L242.008639,99.6760259 L242.008806,97.652468 L242.010107,97.4506996 C242.01909,96.5132949 242.067861,95.6486449 242.116631,95.4535637 L242.123167,95.4306038 L242.130532,95.4075491 C242.261082,95.0173343 242.898189,93.9517938 244.565086,91.3034436 L244.848812,90.8531317 C245.950324,89.1144708 245.928726,89.2008639 245.280778,89.2008639 L244.740821,89.2008639 L244.060475,90.3023758 C242.873758,92.2160907 241.824636,93.8546156 241.594204,94.1491544 L241.382289,94.4168467 L241.198704,94.049676 L241.178348,94.0123536 C241.020187,93.7291173 240.340106,92.6168573 239.611231,91.4362851 L238.207343,89.2008639 L237.12743,89.2008639 L237.483801,89.8164147 L237.518329,89.8794823 L237.567354,89.9654303 C237.845334,90.4457119 238.552083,91.5724583 239.233261,92.6565875 L239.498213,93.0750579 C240.157221,94.1224296 240.719662,95.0647985 240.827143,95.2928988 L240.854755,95.3537003 L240.871213,95.3930809 C241.005987,95.7282328 241.035297,96.1419244 241.036665,97.5876827 L241.036717,99.6760259 Z M278.509719,89.2008639 L278.509719,99.6976242 L281.786,99.6470624 C283.940997,99.6093011 284.219267,99.5790455 284.585523,99.3925695 L284.62203,99.3736501 C285.18246,99.0881479 285.753244,98.4299069 285.928856,97.8855582 L285.939525,97.8509719 C286.129684,97.2382383 286.102813,96.1707774 285.879134,95.6595936 L285.863931,95.6263499 C285.683945,95.2240292 284.99535,94.4999348 284.673303,94.369931 L284.654428,94.362851 C284.557235,94.3304536 284.632829,94.1900648 284.902808,93.9308855 C285.453768,93.3693305 285.672072,92.7454026 285.618918,91.8041188 L285.615551,91.74946 C285.530151,90.361709 284.832717,89.5332302 283.564973,89.3161787 L283.486011,89.3029362 C283.102781,89.2424192 281.90269,89.2021565 280.757319,89.2008639 L278.509719,89.2008639 Z M323.023758,99.6760259 L322.958963,99.4276458 L322.93366,99.3235133 L322.923071,99.2772745 C322.906268,99.2019306 322.894168,99.1366691 322.894168,99.1036717 C322.894168,99.0624612 321.832643,99.0310797 320.497262,99.0282811 L317.710583,99.0280778 L317.710583,94.7084233 L322.462203,94.7084233 L322.462203,94.0604752 L317.710583,94.0604752 L317.710583,89.8488121 L321.232406,89.8479495 C322.738503,89.8432861 322.785492,89.8134114 322.840173,89.6220302 C322.894168,89.4708423 322.861771,89.3520518 322.775378,89.2980562 C322.690883,89.2452472 321.3565,89.2027679 319.792593,89.2008639 L316.738661,89.2008639 L316.738661,99.6760259 L323.023758,99.6760259 Z M124.298056,99.6760259 L124.298056,89.4276458 L123.898488,89.3196544 L123.739311,89.2754654 C123.577987,89.2320518 123.445356,89.2008639 123.412527,89.2008639 C123.360151,89.2008639 123.328097,91.4159417 123.326221,94.1804197 L123.326134,99.6760259 L124.298056,99.6760259 Z M159.308855,99.6760259 L160.313175,99.6760259 L161.584793,96.3904239 L161.817394,95.7842674 C162.850011,93.0816876 163.894249,90.1983099 164.077124,89.5510762 L164.105474,89.4447238 L164.112746,89.4153514 C164.158332,89.2231486 164.116069,89.2028693 163.762131,89.2010314 L163.196544,89.2008639 L161.555076,93.6285097 L161.188022,94.5982963 C160.438293,96.5661807 159.853706,98.0178531 159.816415,97.9805616 C159.708423,97.8725702 158.617711,95.0647948 157.397408,91.7602592 L156.457883,89.2008639 L155.806219,89.2011695 L155.729733,89.2021096 C155.428839,89.2078711 155.402008,89.2390755 155.45188,89.3998828 L155.476114,89.47348 L155.540553,89.6530497 C155.758994,90.2531747 156.408726,91.9933909 157.149028,93.9524838 L159.038877,98.9416847 L159.308855,99.6760259 Z M233.866091,99.7516199 C233.952484,99.6544276 233.293737,98.3261339 232.5054,97.0194384 L231.544276,95.4319654 L232.105832,95.0971922 C233.866091,94.0388769 234.24406,91.4686825 232.840173,90.0647948 C232.113175,89.337797 231.481435,89.2035162 228.660664,89.2008639 L226.349892,89.2008639 L226.349892,99.6760259 L227.321814,99.6760259 L227.321814,95.237581 L230.367171,95.3023758 L231.468683,97.1598272 L231.905591,97.9025998 L232.092319,98.2162314 C232.851535,99.4826876 232.984712,99.5753038 233.395809,99.6697814 L233.525617,99.6985316 L233.596955,99.7132909 C233.74936,99.7439167 233.858092,99.7596192 233.866091,99.7516199 Z M273.866091,99.6652268 C273.866091,99.3952484 273.347732,98.3477322 272.526998,96.9762419 L271.587473,95.4211663 L271.889849,95.2699784 C272.542657,94.9330454 272.97988,94.4831871 273.32163,93.8103015 L273.347732,93.7580994 C273.653078,93.1474082 273.701775,92.9370883 273.704019,92.2763508 L273.704104,92.224622 C273.704104,90.6533477 272.868294,89.600487 271.39564,89.3278378 L271.349892,89.3196544 L271.31183,89.3136129 C270.898464,89.2525388 269.689227,89.2025003 268.544369,89.2008639 L266.306695,89.2008639 L266.306695,99.6868251 L266.825054,99.6544276 L267.332613,99.6220302 L267.365011,97.4298056 L267.386609,95.2483801 L270.399568,95.2483801 L271.177106,96.6198704 L271.389609,96.9901923 L271.594911,97.3436243 C272.33843,98.6153441 272.864701,99.4223999 273.00216,99.5140389 C273.228942,99.6544276 273.866091,99.762419 273.866091,99.6652268 Z M229.028078,94.600432 L227.321814,94.600432 L227.321814,89.8272138 L229.082073,89.8704104 L229.491139,89.8792584 L229.751017,89.8860754 C230.757502,89.9154923 230.952347,89.964077 231.360691,90.1727862 C232.062635,90.5291577 232.473002,91.0583153 232.62419,91.7926566 C232.848102,92.8802253 232.366672,93.8204094 231.304633,94.322171 L231.177658,94.3814231 C230.738815,94.5813284 230.480433,94.600432 229.028078,94.600432 Z M279.481641,94.0712743 L279.481641,89.8488121 L281.175391,89.8490242 L281.366063,89.8506838 C282.110557,89.8603118 282.815766,89.9059288 283.050391,89.9605789 L283.077754,89.9676026 C283.585313,90.1079914 284.319654,90.7451404 284.524838,91.2203024 C284.854896,92.01883 284.481641,93.1427671 283.715577,93.6813812 L283.627749,93.7404104 C283.239969,93.9954272 283.128641,94.0072621 281.562924,94.0351233 L279.481641,94.0712743 Z M267.386609,94.6220302 L267.386609,89.8488121 L268.930886,89.8488121 C269.904571,89.8488121 270.60006,89.89849 270.941113,89.9883156 L270.982721,90 C271.781857,90.237581 272.12743,90.5615551 272.526998,91.4146868 L272.883369,92.1922246 L272.667387,92.775378 C272.37581,93.5529158 272.008639,94.0064795 271.457883,94.3088553 L271.402292,94.3374333 L271.348749,94.3633664 C270.994418,94.5288767 270.672667,94.5493976 269.200864,94.5788337 L267.386609,94.6220302 Z M218.941685,98.9308855 C217.030238,98.574514 215.453564,96.9978402 215.107991,95.0971922 C214.794816,93.3477322 215.853132,91.3282937 217.591793,90.399568 C218.596112,89.8704104 219.308855,89.7516199 220.323974,89.9676026 C222.634989,90.4535637 224.384449,92.8941685 223.984881,95.0971922 C223.542117,97.4946004 221.12311,99.3304536 218.941685,98.9308855 Z M150.322959,98.8659988 L150.062838,98.8657836 L149.911112,98.8646274 C149.170531,98.8561792 148.948674,98.8059949 148.488121,98.5853132 C147.688985,98.2073434 146.61987,97.2138229 146.274298,96.5010799 C145.667668,95.2665352 145.679853,93.7488041 146.310853,92.42336 L146.339093,92.3650108 C146.889849,91.2203024 147.764579,90.4967603 149.136069,90.0539957 C149.88121,89.8164147 150.421166,89.8056156 151.231102,90.0107991 C152.526998,90.3455724 153.704104,91.3390929 154.341253,92.6241901 L154.393351,92.7308787 C154.667744,93.2983136 154.695825,93.4664046 154.697531,94.3348379 L154.697531,94.5430756 L154.696449,94.7401467 L154.694171,94.8861744 C154.680189,95.5165329 154.612249,95.6927533 154.298056,96.3390929 C153.821624,97.3131326 153.116836,98.0172977 152.132811,98.4922933 L151.939798,98.5843532 L151.876705,98.6136564 C151.414863,98.8254762 151.197461,98.860514 150.474512,98.8653837 L150.322959,98.8659988 Z M186.99784,98.9200864 C184.838013,98.5637149 183.153348,96.6090713 183.142221,94.4384449 C183.131749,92.775378 184.168467,91.1339093 185.734341,90.3347732 C186.673866,89.8596112 187.386609,89.762419 188.358531,89.9676026 C190.734341,90.475162 192.429806,92.8293737 192.041037,95.075594 C191.63067,97.4838013 189.25486,99.287257 186.99784,98.9200864 Z M246.511879,96.2526998 L246.447909,96.1143187 L246.40621,96.0212015 C246.191042,95.5315659 246.166307,95.3065595 246.166307,94.4384449 L246.166913,94.2365577 L246.167892,94.1347663 C246.177081,93.4130284 246.232886,93.2217109 246.50108,92.6565875 C247.440605,90.6911447 249.535637,89.5356371 251.393089,89.9676026 C252.775378,90.2807775 254.060475,91.3282937 254.676026,92.6241901 L254.74112,92.7671024 L254.784235,92.8646586 C254.992612,93.3450413 255.02049,93.5645116 255.021565,94.3850906 L255.021565,94.5438452 L255.020848,94.6925946 L255.019135,94.8388622 C255.008144,95.4867415 254.951039,95.668969 254.674552,96.2333256 L254.654428,96.2742981 C253.984881,97.6457883 252.688985,98.6393089 251.241901,98.9092873 C249.427646,99.2440605 247.386609,98.0993521 246.511879,96.2526998 Z M168.031187,96.3278865 L167.484886,96.3278865 L167.022667,96.3245362 C166.166703,96.3150807 165.550756,96.2892898 165.550756,96.2634989 L165.55194,96.2578702 L165.560989,96.2295871 C165.668275,95.9138883 166.601175,93.4827473 167.5054,91.1663067 L167.523739,91.1240286 L167.542523,91.0840614 C167.586593,90.9940538 167.63139,90.9287257 167.656587,90.9287257 C167.688032,90.9287257 167.841555,91.1932298 167.988795,91.5148836 L168.017756,91.5802173 L168.099839,91.7748427 C168.299833,92.2559652 168.670183,93.1835265 169.00818,94.0626758 L169.462621,95.239932 C169.636339,95.6868613 169.768533,96.0225111 169.818542,96.1429698 L169.838013,96.187905 C169.875631,96.2819499 169.528321,96.3186651 168.31822,96.3265797 L168.031187,96.3278865 Z M279.481641,99.049676 L279.481641,94.7192225 L280.701944,94.6760259 L280.845708,94.6723459 C282.312973,94.6375014 283.214302,94.7015146 283.671527,94.8831289 L283.693305,94.8920086 C284.136069,95.0647948 284.730022,95.6047516 284.946004,96.0259179 C285.367171,96.825054 284.902808,98.1641469 284.038877,98.6825054 L283.926945,98.7448633 L283.865029,98.777634 C283.49685,98.9665758 283.235326,98.9796077 281.511879,99.0172786 L279.481641,99.049676 Z" id="Shape"></path>
        </g>
    </g>
</svg>